<svg class="t-sociallinks__svg" version="1.1" id="Layer_1" xmlns="http://www.w3.org/2000/svg" xmlns:xlink="http://www.w3.org/1999/xlink" x="0px" y="0px" width="32px" height="32px" viewBox="0 0 49 49" enable-background="new 0 0 49 49" xml:space="preserve"><desc>Behance</desc><path style="fill:#111111;" d="M33.459 21.608C30.364 21.608 29.933 24.698 29.933 24.698H36.514C36.514 24.697 36.556 21.608 33.459 21.608Z"></path><path style="fill:#111111;" d="M18.528 24.697H12.694V30.0531H17.859C17.947 30.0531 18.078 30.0551 18.233 30.0531C19.064 30.0331 20.639 29.792 20.639 27.449C20.638 24.669 18.528 24.697 18.528 24.697Z"></path><path style="fill:#111111;" d="M24.016 0C10.752 0 0 10.75 0 24.014C0 37.277 10.752 48.03 24.016 48.03C37.278 48.03 48.03 37.278 48.03 24.014C48.029 10.751 37.276 0 24.016 0ZM29.07 14.756H37.337V17.223H29.07V14.756ZM24.891 27.699C24.891 33.815 18.527 33.613 18.527 33.613H12.693H12.522H8.099V13.575H12.522H12.693H18.527C21.695 13.575 24.195 15.325 24.195 18.91C24.195 22.495 21.138 22.723 21.138 22.723C25.169 22.723 24.891 27.699 24.891 27.699ZM40.357 27.371H29.973C29.973 31.093 33.499 30.858 33.499 30.858C36.828 30.858 36.712 28.702 36.712 28.702H40.239C40.239 34.424 33.38 34.032 33.38 34.032C25.153 34.032 25.682 26.371 25.682 26.371C25.682 26.371 25.674 18.673 33.38 18.673C41.492 18.674 40.357 27.371 40.357 27.371Z"></path><path style="fill:#111111;" d="M19.945 19.221C19.945 17.137 18.528 17.137 18.528 17.137H17.777H12.694V21.608H18.166C19.11 21.608 19.945 21.304 19.945 19.221Z"></path></svg>
