<?xml version="1.0" encoding="UTF-8"?> <svg xmlns="http://www.w3.org/2000/svg" width="101" height="104" viewBox="0 0 101 104" fill="none"> <path d="M0 11C0 9.89543 0.895431 9 2 9H93C94.1046 9 95 9.89543 95 11V102C95 103.105 94.1046 104 93 104H2C0.895433 104 0 103.105 0 102V11Z" fill="#333333"></path> <rect x="70" width="31" height="31" rx="2" fill="#FFF500"></rect> <path d="M79 19.1C78.06 19.1 77.3233 18.87 76.79 18.41C76.2633 17.95 76 17.2567 76 16.33V12.25C76 12.1767 76.0233 12.1167 76.07 12.07C76.1233 12.0233 76.1833 12 76.25 12H77.54C77.6133 12 77.6733 12.0233 77.72 12.07C77.7733 12.1167 77.8 12.1767 77.8 12.25V16.32C77.8 16.7533 77.9 17.08 78.1 17.3C78.3067 17.5133 78.6033 17.62 78.99 17.62C79.37 17.62 79.6633 17.51 79.87 17.29C80.0767 17.07 80.18 16.7467 80.18 16.32V12.25C80.18 12.1767 80.2033 12.1167 80.25 12.07C80.3033 12.0233 80.3633 12 80.43 12H81.73C81.8033 12 81.8633 12.0233 81.91 12.07C81.9567 12.1167 81.98 12.1767 81.98 12.25V16.33C81.98 17.2567 81.7133 17.95 81.18 18.41C80.6533 18.87 79.9267 19.1 79 19.1Z" fill="black"></path> <path d="M84.597 19C84.537 19 84.4837 18.98 84.437 18.94C84.397 18.8933 84.377 18.8433 84.377 18.79C84.377 18.7433 84.3904 18.7033 84.417 18.67L86.597 15.43L84.577 12.33C84.557 12.29 84.547 12.25 84.547 12.21C84.547 12.1567 84.567 12.11 84.607 12.07C84.647 12.0233 84.697 12 84.757 12H86.207C86.287 12 86.3537 12.02 86.407 12.06C86.4604 12.1 86.5104 12.15 86.557 12.21L87.747 14.02L88.957 12.21C89.0437 12.07 89.1604 12 89.307 12H90.687C90.7404 12 90.787 12.0233 90.827 12.07C90.8737 12.11 90.897 12.1567 90.897 12.21C90.897 12.2567 90.8837 12.2967 90.857 12.33L88.827 15.42L91.027 18.67C91.047 18.6967 91.057 18.7367 91.057 18.79C91.057 18.8433 91.037 18.8933 90.997 18.94C90.957 18.98 90.907 19 90.847 19H89.357C89.217 19 89.1004 18.9333 89.007 18.8L87.687 16.88L86.377 18.8C86.3037 18.9333 86.1904 19 86.037 19H84.597Z" fill="black"></path> <path d="M93.8213 19C93.7547 19 93.6947 18.9767 93.6413 18.93C93.5947 18.8767 93.5713 18.8167 93.5713 18.75V12.25C93.5713 12.1767 93.5947 12.1167 93.6413 12.07C93.6947 12.0233 93.7547 12 93.8213 12H95.1613C95.2347 12 95.2947 12.0233 95.3413 12.07C95.3947 12.1167 95.4213 12.1767 95.4213 12.25V18.75C95.4213 18.8233 95.3947 18.8833 95.3413 18.93C95.2947 18.9767 95.2347 19 95.1613 19H93.8213Z" fill="black"></path> <path d="M17.268 41.28C15.4947 41.28 13.9733 41.0187 12.704 40.496C11.4347 39.9733 10.4733 39.292 9.82 38.452C9.18533 37.5933 8.84933 36.66 8.812 35.652C8.812 35.5027 8.868 35.372 8.98 35.26C9.11067 35.1293 9.26 35.064 9.428 35.064H12.956C13.18 35.064 13.3573 35.1107 13.488 35.204C13.6373 35.2787 13.7867 35.4 13.936 35.568C14.1787 36.0533 14.5707 36.4547 15.112 36.772C15.6533 37.0893 16.372 37.248 17.268 37.248C18.332 37.248 19.144 37.08 19.704 36.744C20.264 36.408 20.544 35.9507 20.544 35.372C20.544 34.9613 20.3947 34.6253 20.096 34.364C19.816 34.1027 19.368 33.8693 18.752 33.664C18.136 33.4587 17.2213 33.2253 16.008 32.964C13.768 32.4973 12.088 31.816 10.968 30.92C9.86667 30.0053 9.316 28.708 9.316 27.028C9.316 25.8893 9.63333 24.872 10.268 23.976C10.9027 23.08 11.808 22.38 12.984 21.876C14.16 21.372 15.532 21.12 17.1 21.12C18.724 21.12 20.1333 21.4 21.328 21.96C22.5227 22.52 23.428 23.2293 24.044 24.088C24.6787 24.928 25.0147 25.7587 25.052 26.58C25.052 26.748 24.996 26.888 24.884 27C24.772 27.112 24.632 27.168 24.464 27.168H20.768C20.544 27.168 20.3573 27.1307 20.208 27.056C20.0773 26.9813 19.956 26.86 19.844 26.692C19.732 26.2627 19.424 25.8987 18.92 25.6C18.4347 25.3013 17.828 25.152 17.1 25.152C16.26 25.152 15.616 25.3013 15.168 25.6C14.72 25.8987 14.496 26.3373 14.496 26.916C14.496 27.308 14.6173 27.6347 14.86 27.896C15.1213 28.1573 15.532 28.4 16.092 28.624C16.6707 28.8293 17.492 29.044 18.556 29.268C20.292 29.5853 21.6733 29.9867 22.7 30.472C23.7453 30.9387 24.5107 31.5547 24.996 32.32C25.4813 33.0667 25.724 34.0093 25.724 35.148C25.724 36.3987 25.36 37.4907 24.632 38.424C23.9227 39.3387 22.924 40.048 21.636 40.552C20.3667 41.0373 18.9107 41.28 17.268 41.28ZM31.8656 41C31.7163 41 31.5763 40.944 31.4456 40.832C31.3336 40.7013 31.2776 40.5613 31.2776 40.412C31.2776 40.3 31.287 40.216 31.3056 40.16L37.8856 22.184C37.9416 21.96 38.063 21.7733 38.2496 21.624C38.4363 21.4747 38.679 21.4 38.9776 21.4H43.1216C43.4203 21.4 43.663 21.4747 43.8496 21.624C44.0363 21.7733 44.1576 21.96 44.2136 22.184L50.7656 40.16L50.8216 40.412C50.8216 40.5613 50.7563 40.7013 50.6256 40.832C50.5136 40.944 50.3736 41 50.2056 41H46.7616C46.3136 41 46.015 40.804 45.8656 40.412L44.7736 37.556H37.2976L36.2336 40.412C36.0843 40.804 35.7763 41 35.3096 41H31.8656ZM43.6536 33.524L41.0496 26.132L38.4456 33.524H43.6536ZM17.268 71.28C15.4947 71.28 13.9733 71.0187 12.704 70.496C11.4347 69.9733 10.4733 69.292 9.82 68.452C9.18533 67.5933 8.84933 66.66 8.812 65.652C8.812 65.5027 8.868 65.372 8.98 65.26C9.11067 65.1293 9.26 65.064 9.428 65.064H12.956C13.18 65.064 13.3573 65.1107 13.488 65.204C13.6373 65.2787 13.7867 65.4 13.936 65.568C14.1787 66.0533 14.5707 66.4547 15.112 66.772C15.6533 67.0893 16.372 67.248 17.268 67.248C18.332 67.248 19.144 67.08 19.704 66.744C20.264 66.408 20.544 65.9507 20.544 65.372C20.544 64.9613 20.3947 64.6253 20.096 64.364C19.816 64.1027 19.368 63.8693 18.752 63.664C18.136 63.4587 17.2213 63.2253 16.008 62.964C13.768 62.4973 12.088 61.816 10.968 60.92C9.86667 60.0053 9.316 58.708 9.316 57.028C9.316 55.8893 9.63333 54.872 10.268 53.976C10.9027 53.08 11.808 52.38 12.984 51.876C14.16 51.372 15.532 51.12 17.1 51.12C18.724 51.12 20.1333 51.4 21.328 51.96C22.5227 52.52 23.428 53.2293 24.044 54.088C24.6787 54.928 25.0147 55.7587 25.052 56.58C25.052 56.748 24.996 56.888 24.884 57C24.772 57.112 24.632 57.168 24.464 57.168H20.768C20.544 57.168 20.3573 57.1307 20.208 57.056C20.0773 56.9813 19.956 56.86 19.844 56.692C19.732 56.2627 19.424 55.8987 18.92 55.6C18.4347 55.3013 17.828 55.152 17.1 55.152C16.26 55.152 15.616 55.3013 15.168 55.6C14.72 55.8987 14.496 56.3373 14.496 56.916C14.496 57.308 14.6173 57.6347 14.86 57.896C15.1213 58.1573 15.532 58.4 16.092 58.624C16.6707 58.8293 17.492 59.044 18.556 59.268C20.292 59.5853 21.6733 59.9867 22.7 60.472C23.7453 60.9387 24.5107 61.5547 24.996 62.32C25.4813 63.0667 25.724 64.0093 25.724 65.148C25.724 66.3987 25.36 67.4907 24.632 68.424C23.9227 69.3387 22.924 70.048 21.636 70.552C20.3667 71.0373 18.9107 71.28 17.268 71.28ZM33.9864 71C33.7811 71 33.6131 70.9347 33.4824 70.804C33.3517 70.6733 33.2864 70.5053 33.2864 70.3V52.1C33.2864 51.8947 33.3517 51.7267 33.4824 51.596C33.6317 51.4653 33.7997 51.4 33.9864 51.4H37.5984C37.8037 51.4 37.9717 51.4653 38.1024 51.596C38.2517 51.7267 38.3264 51.8947 38.3264 52.1V58.848H45.2144V52.1C45.2144 51.8947 45.2797 51.7267 45.4104 51.596C45.5411 51.4653 45.7091 51.4 45.9144 51.4H49.5264C49.7317 51.4 49.8997 51.4653 50.0304 51.596C50.1611 51.7267 50.2264 51.8947 50.2264 52.1V70.3C50.2264 70.5053 50.1611 70.6733 50.0304 70.804C49.8997 70.9347 49.7317 71 49.5264 71H45.9144C45.7091 71 45.5411 70.9347 45.4104 70.804C45.2797 70.6733 45.2144 70.5053 45.2144 70.3V63.328H38.3264V70.3C38.3264 70.5053 38.2517 70.6733 38.1024 70.804C37.9717 70.9347 37.8037 71 37.5984 71H33.9864ZM57.7897 71C57.6404 71 57.5004 70.944 57.3697 70.832C57.2577 70.7013 57.2017 70.5613 57.2017 70.412C57.2017 70.3 57.211 70.216 57.2297 70.16L63.8097 52.184C63.8657 51.96 63.987 51.7733 64.1737 51.624C64.3604 51.4747 64.603 51.4 64.9017 51.4H69.0457C69.3444 51.4 69.587 51.4747 69.7737 51.624C69.9604 51.7733 70.0817 51.96 70.1377 52.184L76.6897 70.16L76.7457 70.412C76.7457 70.5613 76.6804 70.7013 76.5497 70.832C76.4377 70.944 76.2977 71 76.1297 71H72.6857C72.2377 71 71.939 70.804 71.7897 70.412L70.6977 67.556H63.2217L62.1577 70.412C62.0084 70.804 61.7004 71 61.2337 71H57.7897ZM69.5777 63.524L66.9737 56.132L64.3697 63.524H69.5777Z" fill="white"></path> </svg> 